<svg width="512" height="512" viewBox="0 0 512 512" fill="none" xmlns="http://www.w3.org/2000/svg">
  <rect width="512" height="512" rx="112" fill="#09090B"/>
  <rect x="48" y="48" width="416" height="416" rx="88" fill="#18181B"/>
  <path d="M152 338V174H268C300 174 324 181 340 195C356 209 364 229 364 255C364 275 359 291 349 304C339 317 324 326 305 331L371 338V370H296L238 340H204V370H152V338ZM204 296H263C279 296 291 293 298 286C306 279 310 269 310 256C310 243 306 233 298 226C291 219 279 216 263 216H204V296Z" fill="#34D399"/>
  <circle cx="360" cy="152" r="28" fill="#34D399"/>
</svg>
